<?xml version="1.0" encoding="UTF-8" standalone="no"?>
<!-- Generator: Adobe Illustrator 25.0.0, SVG Export Plug-In . SVG Version: 6.00 Build 0)  -->

<svg
   version="1.1"
   id="Capa_1"
   x="0px"
   y="0px"
   viewBox="0 0 512.021 512.021"
   style="enable-background:new 0 0 512.021 512.021;"
   xml:space="preserve"
   width="512"
   height="512"
   sodipodi:docname="cross.svg"
   inkscape:version="1.2.2 (b0a8486541, 2022-12-01, custom)"
   xmlns:inkscape="http://www.inkscape.org/namespaces/inkscape"
   xmlns:sodipodi="http://sodipodi.sourceforge.net/DTD/sodipodi-0.dtd"
   xmlns="http://www.w3.org/2000/svg"
   xmlns:svg="http://www.w3.org/2000/svg"><defs
   id="defs318" /><sodipodi:namedview
   id="namedview316"
   pagecolor="#ffffff"
   bordercolor="#000000"
   borderopacity="0.25"
   inkscape:showpageshadow="2"
   inkscape:pageopacity="0.0"
   inkscape:pagecheckerboard="0"
   inkscape:deskcolor="#d1d1d1"
   showgrid="false"
   inkscape:zoom="0.4609375"
   inkscape:cx="256"
   inkscape:cy="256"
   inkscape:window-width="1280"
   inkscape:window-height="955"
   inkscape:window-x="0"
   inkscape:window-y="0"
   inkscape:window-maximized="1"
   inkscape:current-layer="Capa_1" />
<g
   id="g313">
	<path
   d="M301.258,256.01L502.645,54.645c12.501-12.501,12.501-32.769,0-45.269c-12.501-12.501-32.769-12.501-45.269,0l0,0   L256.01,210.762L54.645,9.376c-12.501-12.501-32.769-12.501-45.269,0s-12.501,32.769,0,45.269L210.762,256.01L9.376,457.376   c-12.501,12.501-12.501,32.769,0,45.269s32.769,12.501,45.269,0L256.01,301.258l201.365,201.387   c12.501,12.501,32.769,12.501,45.269,0c12.501-12.501,12.501-32.769,0-45.269L301.258,256.01z"
   id="path311" />
</g>















<path
   style="fill:#d40000;stroke-width:2.16949"
   d="M 15.834139,505.57935 C 6.7478821,500.03914 2.1694915,490.79519 2.1694915,477.98992 V 467.62878 L 107.90228,361.81439 213.63507,256 107.90228,150.18561 2.1694915,44.371226 V 34.010079 c 0,-19.714757 11.6756765,-31.8171941 30.7099895,-31.8324777 8.250555,-0.00662 11.627026,1.2851328 18.440678,7.0549673 C 55.907632,13.117261 103.79204,60.710482 157.72995,114.99528 L 255.79889,213.69492 361.71383,107.9322 467.62878,2.1694915 l 10.79578,0.00811 c 19.77136,0.014848 31.40595,11.8074555 31.40595,31.8324735 V 44.371226 L 404.0678,150.34283 298.30508,256.31445 l 99.79661,98.9417 c 54.88814,54.41794 102.48136,102.31871 105.76272,106.44618 4.56613,5.74352 5.96419,9.8526 5.95798,17.51123 -0.0152,18.93591 -12.16015,30.61695 -31.83247,30.61695 H 467.62878 L 361.81439,404.09771 256,298.36494 150.18561,404.09771 44.371226,509.83051 l -10.795782,-0.009 c -6.876952,-0.004 -13.316984,-1.54537 -17.741305,-4.24305 z"
   id="path389"
   transform="scale(1.000041)" /></svg>
